<svg xmlns="http://www.w3.org/2000/svg" viewBox="0 0 240 240" width="480" height="480">
<rect width="240" height="240" rx="16" fill="#ffffff"/>
<g font-family="Arial Black, Arial, sans-serif" font-weight="900" font-size="130" text-anchor="middle" fill="#3d3d3d"><text x="134" y="186">ᕶ</text><text x="133.5" y="185.5">ᕶ</text><text x="133" y="185">ᕶ</text><text x="132.5" y="184.5">ᕶ</text><text x="132" y="184">ᕶ</text><text x="131.5" y="183.5">ᕶ</text><text x="131" y="183">ᕶ</text><text x="130.5" y="182.5">ᕶ</text><text x="130" y="182">ᕶ</text><text x="129.5" y="181.5">ᕶ</text><text x="129" y="181">ᕶ</text><text x="128.5" y="180.5">ᕶ</text><text x="128" y="180">ᕶ</text><text x="127.5" y="179.5">ᕶ</text><text x="127" y="179">ᕶ</text><text x="126.5" y="178.5">ᕶ</text><text x="126" y="178">ᕶ</text><text x="125.5" y="177.5">ᕶ</text><text x="125" y="177">ᕶ</text><text x="124.5" y="176.5">ᕶ</text><text x="124" y="176">ᕶ</text><text x="123.5" y="175.5">ᕶ</text><text x="123" y="175">ᕶ</text><text x="122.5" y="174.5">ᕶ</text><text x="122" y="174">ᕶ</text><text x="121.5" y="173.5">ᕶ</text><text x="121" y="173">ᕶ</text><text x="120.5" y="172.5">ᕶ</text></g>
<text x="120" y="172" text-anchor="middle" font-family="Arial Black, Arial, sans-serif" font-weight="900" font-size="130" fill="#111111">ᕶ</text>
</svg>